M48
INCH,TZ
VER,1
FMAT,2
DETECT,ON
ATC,ON
T1C0.15748
T2C0.02362
T3C0.03500
T4C0.03917
T5C0.04667
T6C0.03937
T7C0.03333
T8C0.11833
%
T1
X2.56000Y3.16000
T2
X3.18125Y2.69375
X3.08125Y3.09375
T3
X5.21408Y3.63921
X5.11408
X4.98000Y3.28000
Y3.38000
X5.00000Y2.52000
X4.90000
X5.00000Y2.82000
X4.90000
Y2.72000
Y2.62000
X5.00000
Y2.72000
Y2.92000
X2.39310Y3.84980
X2.59310
X2.40000Y3.56000
X2.60000
X3.54000Y2.72000
X4.24000Y2.46000
Y2.56000
X4.34000
X3.16000Y2.54000
Y2.84000
X2.88000Y2.46000
X3.16000Y2.46000
X3.46000
X3.04000Y3.76000
Y3.66000
Y3.96000
Y3.86000
X2.74000Y3.76000
Y3.66000
Y3.96000
Y3.86000
X2.88000Y3.14000
Y3.34000
X2.74000Y3.48000
X3.04000
X3.48000Y3.20833
Y3.40000
X3.66000Y3.18000
Y3.38000
X3.48000Y2.92000
X3.18000
X3.66000Y2.66000
Y2.96000
X3.30000Y3.22000
Y3.42000
X4.72000Y3.22000
Y3.32000
Y3.62000
Y3.42000
Y3.52000
Y3.72000
Y3.92000
Y3.82000
X4.42000Y3.22000
Y3.52000
Y3.32000
Y3.42000
Y3.72000
Y3.62000
Y3.82000
Y3.92000
X4.20000Y3.44000
Y3.34000
Y3.64000
Y3.54000
Y3.74000
X4.54000Y2.82000
Y3.12000
X4.90000Y3.62000
Y3.52000
X5.66000Y3.40250
Y3.18417
Y3.29333
Y3.07500
X5.56000Y3.12917
Y3.45667
Y3.34750
Y3.23833
X5.16000Y3.26000
X5.26000
T4
X4.90000Y2.92000
X3.54000Y2.62000
X4.34000Y2.46000
X2.88000Y2.56000
X4.20000Y3.24000
T5
X2.56000Y2.44000
X2.46000
X2.66000
T6
X4.07559Y2.56000
X3.80000Y2.46000
X4.07559
X3.80000Y3.76000
Y3.66000
Y3.56000
Y3.46000
Y3.26000
Y3.36000
Y3.16000
Y2.96000
Y3.06000
Y2.86000
Y2.76000
Y2.66000
Y2.56000
X4.07559Y3.76000
Y3.16000
Y2.96000
Y3.06000
Y2.86000
Y2.66000
Y2.76000
Y3.46000
Y3.66000
Y3.56000
Y3.26000
Y3.36000
T7
X5.56000Y3.02000
T8
X5.61000Y3.73083
Y2.74667
M30
